<?xml version="1.0" encoding="UTF-8"?>
<svg width="110px" height="110px" viewBox="0 0 110 110" version="1.1" xmlns="http://www.w3.org/2000/svg" xmlns:xlink="http://www.w3.org/1999/xlink">
    <title>Group 5</title>
    <g id="Desktop" stroke="none" stroke-width="1" fill="none" fill-rule="evenodd">
        <g id="Home" transform="translate(-1064.000000, -4340.000000)">
            <g id="Clients" transform="translate(0.000000, 3709.000000)">
                <g id="Logo-03" transform="translate(974.000000, 606.000000)">
                    <g id="Group-5" transform="translate(90.000000, 25.000000)">
                        <circle id="Oval" stroke="#979797" stroke-width="3" cx="55" cy="55" r="53.5"></circle>
                        <polyline id="Path-9" stroke="#979797" stroke-width="3" points="92 91.9755887 92 35.784394 46.5679081 35.784394 46.5679081 23 22 23 22 95"></polyline>
                        <path d="M40.42,68.24 C41.7,68.24 42.7866667,68.0466667 43.68,67.66 C44.5733333,67.2733333 45.2433333,66.75 45.69,66.09 C46.1366667,65.43 46.36,64.7 46.36,63.9 C46.36,62.9666667 46.1166667,62.2266667 45.63,61.68 C45.1433333,61.1333333 44.56,60.7333333 43.88,60.48 C43.2,60.2266667 42.3266667,59.9733333 41.26,59.72 C40.2333333,59.4933333 39.47,59.2633333 38.97,59.03 C38.47,58.7966667 38.22,58.44 38.22,57.96 C38.22,57.48 38.4366667,57.0933333 38.87,56.8 C39.3033333,56.5066667 39.9733333,56.36 40.88,56.36 C42.1733333,56.36 43.4666667,56.7266667 44.76,57.46 L44.76,57.46 L45.76,55 C45.12,54.6 44.3733333,54.2933333 43.52,54.08 C42.6666667,53.8666667 41.7933333,53.76 40.9,53.76 C39.62,53.76 38.5366667,53.9533333 37.65,54.34 C36.7633333,54.7266667 36.1,55.25 35.66,55.91 C35.22,56.57 35,57.3066667 35,58.12 C35,59.0533333 35.2433333,59.8 35.73,60.36 C36.2166667,60.92 36.8,61.3266667 37.48,61.58 C38.16,61.8333333 39.0333333,62.0866667 40.1,62.34 C40.7933333,62.5 41.3433333,62.6466667 41.75,62.78 C42.1566667,62.9133333 42.49,63.09 42.75,63.31 C43.01,63.53 43.14,63.8066667 43.14,64.14 C43.14,64.5933333 42.92,64.9566667 42.48,65.23 C42.04,65.5033333 41.36,65.64 40.44,65.64 C39.6133333,65.64 38.7866667,65.5066667 37.96,65.24 C37.1333333,64.9733333 36.42,64.62 35.82,64.18 L35.82,64.18 L34.72,66.62 C35.3466667,67.1 36.1766667,67.49 37.21,67.79 C38.2433333,68.09 39.3133333,68.24 40.42,68.24 Z M54.8,68.24 C56.8,68.24 58.3566667,67.6866667 59.47,66.58 C60.5833333,65.4733333 61.14,63.8933333 61.14,61.84 L61.14,61.84 L61.14,54 L57.94,54 L57.94,61.72 C57.94,63.0133333 57.6733333,63.9633333 57.14,64.57 C56.6066667,65.1766667 55.8333333,65.48 54.82,65.48 C52.74,65.48 51.7,64.2266667 51.7,61.72 L51.7,61.72 L51.7,54 L48.46,54 L48.46,61.84 C48.46,63.8933333 49.0166667,65.4733333 50.13,66.58 C51.2433333,67.6866667 52.8,68.24 54.8,68.24 Z M67.54,68 L67.54,59.5 L74.52,68 L77.18,68 L77.18,54 L73.98,54 L73.98,62.5 L67.02,54 L64.34,54 L64.34,68 L67.54,68 Z M44.33,89 C46.1566667,89 47.5466667,88.67 48.5,88.01 C49.4533333,87.35 49.93,86.4066667 49.93,85.18 C49.93,84.3133333 49.7033333,83.5833333 49.25,82.99 C48.7966667,82.3966667 48.17,81.9733333 47.37,81.72 C47.9566667,81.4133333 48.4133333,80.9933333 48.74,80.46 C49.0666667,79.9266667 49.23,79.32 49.23,78.64 C49.23,77.52 48.7733333,76.6333333 47.86,75.98 C46.9466667,75.3266667 45.6366667,75 43.93,75 L43.93,75 L37.09,75 L37.09,89 L44.33,89 Z M43.53,80.74 L40.31,80.74 L40.31,77.44 L43.53,77.44 C44.33,77.44 44.9366667,77.5766667 45.35,77.85 C45.7633333,78.1233333 45.97,78.5333333 45.97,79.08 C45.97,79.6266667 45.7633333,80.04 45.35,80.32 C44.9366667,80.6 44.33,80.74 43.53,80.74 L43.53,80.74 Z M44.09,86.56 L40.31,86.56 L40.31,83.1 L44.09,83.1 C45.81,83.1 46.67,83.68 46.67,84.84 C46.67,85.4266667 46.4533333,85.86 46.02,86.14 C45.5866667,86.42 44.9433333,86.56 44.09,86.56 L44.09,86.56 Z M63.23,89 L63.23,86.4 L55.61,86.4 L55.61,83.16 L62.11,83.16 L62.11,80.64 L55.61,80.64 L55.61,77.6 L62.97,77.6 L62.97,75 L52.39,75 L52.39,89 L63.23,89 Z M76.65,89 L76.65,86.4 L69.03,86.4 L69.03,83.16 L75.53,83.16 L75.53,80.64 L69.03,80.64 L69.03,77.6 L76.39,77.6 L76.39,75 L65.81,75 L65.81,89 L76.65,89 Z" id="SUNBEE" fill="#979797" fill-rule="nonzero"></path>
                    </g>
                </g>
            </g>
        </g>
    </g>
</svg>